# xmcd
#
# Track frame offsets: 
#        150
#        16254
#        28807
#        40112
#        51307
#        65954
#        77432
#        89116
#        102493
#        112943
#        125960
#        139634
#
# Disc length: 2065 seconds
#
# Revision: 0
# Processed by: cddbd v1.5.2PL0 Copyright (c) Steve Scherf et al.
# Submitted via: ExactAudioCopy v0.99pb5
#
DISCID=aa080f0c
DTITLE=Big Joe Williams - Old Saw Mill Blues
DYEAR=2010
DGENRE=Blues
TTITLE0=So Soon I'll Be Goin' My Way Back Home
TTITLE1=Shake 'Em On Down
TTITLE2=Saturday Night Jump
TTITLE3=Jinx Blues
TTITLE4=Pick A Pickle
TTITLE5=Ramblin' And Wanderin' Blues
TTITLE6=Old Saw Mill Blues
TTITLE7=Don't The Apples Look Mellow Hangin'
TTITLE8=El Paso Blues
TTITLE9=Back Home Blues
TTITLE10=Don't You Leave Me Here
TTITLE11=Shaggy Hound Blues
EXTD=
EXTT0=
EXTT1=
EXTT2=
EXTT3=
EXTT4=
EXTT5=
EXTT6=
EXTT7=
EXTT8=
EXTT9=
EXTT10=
EXTT11=
PLAYORDER=
